<svg xmlns="http://www.w3.org/2000/svg" viewBox="0 0 420 420"><defs><style>.cls-1{fill:#e7e7e7;}</style></defs><g id="Layer_2" data-name="Layer 2"><g id="Google_alt" data-name="Google alt"><path class="cls-1" d="M342.82,100.28A24.3,24.3,0,1,1,318.51,76h0A24.29,24.29,0,0,1,342.82,100.28ZM420,210v.31l-1.38,88.1a121.57,121.57,0,0,1-120.2,120.2L210,420h-.31l-88.1-1.37A121.59,121.59,0,0,1,1.38,298.42L0,210v-.31l1.37-88.1A121.58,121.58,0,0,1,121.59,1.39L210,0h.31l88.1,1.37a121.59,121.59,0,0,1,120.2,120.2Zm-39.11,0-1.38-87.8A82.63,82.63,0,0,0,297.8,40.49L210,39.11l-87.8,1.38A82.65,82.65,0,0,0,40.48,122.2L39.11,210l1.37,87.8a82.66,82.66,0,0,0,81.72,81.72l87.8,1.37,87.8-1.37a82.65,82.65,0,0,0,81.71-81.72Zm-63.05,0A107.84,107.84,0,1,1,210,102.16h0A108,108,0,0,1,317.84,210Zm-39.11,0A68.74,68.74,0,1,0,210,278.73h0A68.81,68.81,0,0,0,278.73,210Z"/></g></g></svg>