<svg xmlns="http://www.w3.org/2000/svg" viewBox="0 0 314.68 212.7"><g id="Layer_2" data-name="Layer 2"><g id="レイヤー_1" data-name="レイヤー 1"><path d="M314.68,3.7c-4.34,2.42-8.67,4.78-12.95,7.23-3.37,1.93-7.21,3.47-9.9,6.05a91.6,91.6,0,0,1-19.19,13.68c-6.81,3.79-13.05,8.47-19.6,12.67-3.47,2.22-7.13,4.19-10.61,6.41-6.17,3.95-12,8.41-18.47,11.92-8.46,4.61-17.38,9-27.62,7.56-10.41-1.52-20.2-5-28.31-11.57C157.19,48.86,147.32,39.24,140,27.58c-2.05-3.24-3.28-3.65-7.37-1.78-10.64,4.86-21.36,9.59-31.69,15C83,50.08,65.49,60.06,47.57,69.34,38.06,74.26,28.43,79.3,17,79.46,10.44,79.55,6,76.69,3.88,71-.3,59.78.81,48.29,1.71,36.88c.53-6.75,2.23-13.42,3.23-20.15.47-3.12,2.27-4.46,5.45-4.2,2.55.2,4.66,3.46,4.77,6.11.19,5.07,0,10.31,1.33,15.13,2,7.13,6.54,12.54,14.45,15.56,4.87,1.85,9.14.74,13.67.17,14.47-1.83,27.3-8.28,40.76-12.92,2.62-.91,4.79-2.89,7.37-4,12.77-5.32,25.46-10.87,38.49-15.55,5.24-1.88,10.73-.08,15.34,3.47,7.45,5.73,14.84,11.6,22.82,16.64,4,2.5,9.31,3,13.77,4.92,10.49,4.53,21.13,1.87,31-.78a255.88,255.88,0,0,0,41.15-15c15-7,29.1-15.68,43.56-23.69A19.78,19.78,0,0,1,308.68,0C311.32,0,313.55.83,314.68,3.7Z"/><path d="M183.65,125c-3,2.37-5.46,4.14-7.72,6.13-3.89,3.44-8.27,5.23-13.08,2.65-2.89-1.55-5.18-4.22-8-6.59a23.09,23.09,0,0,0-2.73,3.58c-2.59,5-6.48,8.7-11.83,10.32a14.18,14.18,0,0,1-8.06.07c-4.13-1.38-8.43-3.14-11.74-5.86a20.16,20.16,0,0,1-7.29-11.4c-.72-3.57-2.43-5.53-6.15-5.38-4.81.19-9.9-.33-13.91,3-3,2.52-5.7,5.49-5.09,10.09.49,3.73-1.75,6.25-4.59,8.11s-7.27-.41-7.57-4.17A32.8,32.8,0,0,1,77,125.85c1.66-7.4,3.07-14.76,0-22.1-1-2.24-2.65-4.24-3.25-6.55-.94-3.63.33-6.88,3.92-8.42A10.91,10.91,0,0,1,88,89.26c3.48,2.17,4.45,5.53,3.4,9.86-.62,2.57-1,5.2-1.4,7.82a26.05,26.05,0,0,0-.1,3.51c6.22-1.86,12.32-3.9,18.55-5.43a19,19,0,0,1,8.51-.21c3.3.76,5.14-.79,7.21-2.62a29.28,29.28,0,0,1,18.93-7.83c6.81-.2,14.78,4.58,15.49,13.25.54,6.64,6.2,8.62,11.38,10.32,4,1.31,7-1.54,9.82-4,.58-.49.62-1.84.58-2.78-.35-7.42,0-14.75,3.33-21.56a6.65,6.65,0,0,1,3.57-3.14c3.42-1.06,7.21-1.06,9.74,1.7,2.35,2.56,4.83,5.61,3.3,9.68-.52,1.37-1.36,2.61-1.93,4-2.79,6.75-2.77,13.83-2.55,21.53,2.3-3,4.21-5.57,6.25-8.07,4.2-5.13,7.87-10.83,14.41-13.46,4.67-1.88,9-1.85,12.4,2.4A9.62,9.62,0,0,1,231,109a73.8,73.8,0,0,1-.1,9.86c-.12,2.74,1.41,4.27,4.1,3.59,1.4-.35,3.89-1.25,5.3-1.68.56-.18,1.16-.44,1.9-.71,2.15-.66,2.58-1,4.73-.82-.69,1.51-1.3,4.12-2.42,5.18a32.09,32.09,0,0,1-7.05,5.21c-5.43,2.83-9.38,1.93-14.15-2.14-2.78-2.37-5.51-4.56-6.23-8.45-.08-.44-2.18-1.15-2.68-.79-5.73,4-11.29,8.27-14.28,14.87-1.12,2.46-5.24,5.35-7.79,5.29-4.25-.1-5.35-2.36-6.62-6.35C185.06,130,184.5,127.89,183.65,125Zm-52.5-1.15c0,.63,0,1.27-.05,1.9a5,5,0,0,0,3.42,5.5c1.42.48,4.11-.11,5-1.21a120.47,120.47,0,0,0,7.43-11.27c1.44-2.31.82-4.37-.92-6.31-1.11-1.24-1.88-2.82-3.11-3.89a3.38,3.38,0,0,0-3-.61C133.89,111.45,131.36,117,131.15,123.8Z"/><path d="M45.82,123.4c-3.24,2.17-6.19,4.22-9.22,6.16-4.77,3-9.85,3.16-14.46.16a13,13,0,0,1-6.08-13.45c1.54-10.68,6.48-19,16.78-23.41,6.78-2.88,16.61-1.12,20.94,3.31,5.33,5.45,4.66,11.9,2.22,19.32a11.17,11.17,0,0,0-.74,3c-.11,4.32.36,4.68,4.52,4.34,4.66-.39,9.33-.75,14-1a6.35,6.35,0,0,1,3.67.57c1.07.74,1.63,2.21,2.41,3.37a11.78,11.78,0,0,1-3.35,1.11c-6.17.07-11.89,2-17.63,3.93-2.26.74-3.27,2.32-3.16,4.86a121.84,121.84,0,0,1-10.1,53.42c-2.93,6.87-5.83,14-12.14,18.74-6.47,4.81-13.59,6.46-21.29,3.09C2.71,206.77-.39,198.22,0,190.47c.23-4.33-.15-8.7.06-13,.51-10.3,4.55-19.21,10.69-27.41,7.17-9.56,17.61-14.09,27.93-18.87a38.89,38.89,0,0,1,4.94-2.22C46.7,128,47.06,126.21,45.82,123.4Zm1.23,17.75c0-3.22-1.15-3.36-3.9-1.52a35.68,35.68,0,0,0-6.79,5.68c-4.48,5-9.5,9.81-12.73,15.57-3.58,6.38-6.83,13.28-7,21-.07,2.7-.68,5.83,2.16,7.46,1.41.8,4,1.29,5.11.54,4.1-2.73,8.4-5.55,11.49-9.27A35,35,0,0,0,41.91,168c2.26-8.12,3.22-16.14,4.9-24.43Zm-5.56-39.21c-5.7.27-10.75,4.32-11,8.61-.08,1.54,1.44,3.63,2.83,4.63a2.9,2.9,0,0,0,4.48-1.46C39.19,110,40.19,106.23,41.49,101.94Z"/><path d="M288.24,90.5c5.15.1,10.31.31,15.46.28,3.44,0,8.08,4.7,7.11,7.93-.27.9-2.44,1.77-3.73,1.76-7.11-.08-14.23-.39-21.34-.72-2.79-.14-4.63.53-5.26,3.67-1,5-2.56,9.81-3.42,14.79-.28,1.62.89,3.49,1.4,5.24.41,1.38,1.16,2.77,1.16,4.15,0,6,4.51,8.73,8.23,12.09,1.13,1,2.32,2,3.48,3-1.95.51-4.51,2.08-5.74,1.36-6.12-3.56-12-7-15.55-14.17-4.29-8.8-4.17-17.59-3.75-26.71,0-.62-.06-1.25-.13-2.49l-12.3,1.58a.8.8,0,0,0-.55.28c-3.35,6-8.26,2.33-12.37,1.65-3.9-.65-5-4.52-6.08-7.88-.86-2.76,2.78-9.19,6.35-10.47a18.52,18.52,0,0,1,8-1c5.65.59,11.23,1.84,16.87,2.57.9.12,2.29-.86,2.91-1.72a120.34,120.34,0,0,0,7.34-11c1.86-3.28,4.54-4.23,7.95-4a8.49,8.49,0,0,1,7.54,5.54c1.5,3.68,2.53,7.55-.56,11a19.55,19.55,0,0,1-3.33,2.44Z"/></g></g></svg>