<svg xmlns="http://www.w3.org/2000/svg" viewBox="0 0 49.26 40"><defs><style>.cls-1{fill:#e7e7e7;}</style></defs><g id="Layer_2" data-name="Layer 2"><g id="Layer_1-2" data-name="Layer 1"><g id="Layer_2-2" data-name="Layer 2"><g id="Layer_1-2-2" data-name="Layer 1-2"><path class="cls-1" d="M49.26,4.74a20.15,20.15,0,0,1-5.8,1.59A10.11,10.11,0,0,0,47.9.74a20,20,0,0,1-6.42,2.45A10.11,10.11,0,0,0,24,10.11a10.53,10.53,0,0,0,.26,2.3A28.67,28.67,0,0,1,3.43,1.85,10.11,10.11,0,0,0,6.56,15.34,10,10,0,0,1,2,14.08v.13a10.12,10.12,0,0,0,8.11,9.91,10.46,10.46,0,0,1-2.67.35,10.11,10.11,0,0,1-1.9-.18,10.12,10.12,0,0,0,9.44,7A20.31,20.31,0,0,1,2.41,35.64,19.37,19.37,0,0,1,0,35.49,28.61,28.61,0,0,0,15.49,40c18.59,0,28.76-15.4,28.76-28.75V9.94A20.31,20.31,0,0,0,49.26,4.74Z"/></g></g></g></g></svg>